<?xml version="1.0" standalone="no"?>
<!DOCTYPE svg PUBLIC "-//W3C//DTD SVG 20010904//EN"
 "http://www.w3.org/TR/2001/REC-SVG-20010904/DTD/svg10.dtd">
<svg version="1.0" xmlns="http://www.w3.org/2000/svg"
 width="137.000000pt" height="137.000000pt" viewBox="0 0 137.000000 137.000000"
 preserveAspectRatio="xMidYMid meet">
<metadata>
Created by potrace 1.14, written by Peter Selinger 2001-2017
</metadata>
<g transform="translate(0.000000,137.000000) scale(0.100000,-0.100000)"
fill="#000000" stroke="none">
<path d="M523 1320 c-235 -62 -411 -232 -478 -460 -24 -80 -27 -280 -6 -350
97 -325 369 -519 696 -496 131 9 225 42 336 117 120 81 227 238 266 389 18 74
20 222 4 290 -7 25 -14 54 -16 65 -3 11 -23 58 -46 105 -81 163 -243 292 -425
339 -98 25 -239 26 -331 1z m238 -237 c3 -99 1 -312 -4 -320 -3 -5 -36 -9 -74
-8 l-68 1 -2 169 c0 94 1 173 4 178 2 4 35 7 74 7 68 0 69 0 70 -27z m-333
-333 c1 -237 13 -292 82 -360 53 -53 105 -72 190 -69 108 4 182 57 222 158 20
54 26 148 28 435 0 27 2 28 34 22 19 -4 56 -13 83 -21 l49 -15 -2 -157 c-2
-187 -5 -209 -45 -291 -58 -120 -169 -205 -304 -232 -226 -46 -462 117 -499
345 -11 64 -11 324 0 335 9 9 114 38 145 39 15 1 17 -19 17 -189z"/>
</g>
</svg>
